<?xml version="1.0"?>
<svg width="293" height="156" xmlns="http://www.w3.org/2000/svg" xmlns:svg="http://www.w3.org/2000/svg">
 <!-- Created with SVG-edit - https://github.com/SVG-Edit/svgedit-->
 <g class="layer">
  <title>Layer 1</title>
  <g id="svg_7">
   <rect fill="#aaffd4" height="156.00001" id="svg_4" stroke="#000000" stroke-dasharray="null" stroke-linecap="null" stroke-linejoin="null" stroke-width="0" width="293" x="1.5" y="2.5"/>
   <path d="m13.62379,151.39598l-6.49031,4.71505l2.48099,-7.62706l-6.48885,-4.71505l8.02084,0.00146l2.13178,-6.55825l0.34775,-1.06516l2.4766,7.62195l8.02303,0l-6.49177,4.71505l2.48172,7.62926l-6.49177,-4.71724l0,0l-0.00001,-0.00001z" fill="#bfbf00" id="svg_11" stroke="#000000" stroke-dasharray="null" stroke-linecap="null" stroke-linejoin="null" stroke-width="0"/>
   <path d="m14.49818,18.76589l-6.49031,4.71505l2.48099,-7.62706l-6.48885,-4.71505l8.02084,0.00146l2.13178,-6.55825l0.34775,-1.06516l2.4766,7.62195l8.02303,0l-6.49177,4.71505l2.48172,7.62926l-6.49177,-4.71724l0,0l-0.00001,-0.00001z" fill="#bfbf00" id="svg_12" stroke="#000000" stroke-dasharray="null" stroke-linecap="null" stroke-linejoin="null" stroke-width="0"/>
   <path d="m281.49818,19.76589l-6.49031,4.71505l2.48099,-7.62706l-6.48885,-4.71505l8.02084,0.00146l2.13178,-6.55825l0.34775,-1.06516l2.4766,7.62195l8.02303,0l-6.49177,4.71505l2.48172,7.62926l-6.49177,-4.71724l0,0l-0.00001,-0.00001z" fill="#bfbf00" id="svg_13" stroke="#000000" stroke-dasharray="null" stroke-linecap="null" stroke-linejoin="null" stroke-width="0"/>
   <path d="m281.49818,150.76589l-6.49031,4.71505l2.48099,-7.62706l-6.48885,-4.71505l8.02084,0.00146l2.13178,-6.55825l0.34775,-1.06516l2.4766,7.62195l8.02303,0l-6.49177,4.71505l2.48172,7.62926l-6.49177,-4.71724l0,0l-0.00001,-0.00001z" fill="#bfbf00" id="svg_15" stroke="#000000" stroke-dasharray="null" stroke-linecap="null" stroke-linejoin="null" stroke-width="0"/>
   <g id="svg_6">
    <text fill="#000000" font-family="serif" font-size="24" id="svg_1" stroke="#000000" stroke-width="0" text-anchor="middle" transform="rotate(8.03262 146.307 54.2272) matrix(4.36675 0 0 3.29695 -1137.55 -476.647)" x="294.021571" xml:space="preserve" y="169.179611">P</text>
    <text fill="#000000" font-family="serif" font-size="24" id="svg_2" stroke="#000000" stroke-dasharray="null" stroke-linecap="null" stroke-linejoin="null" stroke-width="0" text-anchor="middle" transform="rotate(-53.8205 166.151 98.212) matrix(4.54643 0 0 2.92717 -1816.5 -210.748)" x="436.104451" xml:space="preserve" y="113.648428">V</text>
    <text fill="#000000" font-family="Serif" font-size="24" id="svg_3" stroke="#000000" stroke-dasharray="null" stroke-linecap="null" stroke-linejoin="null" stroke-width="0" text-anchor="middle" transform="rotate(-2.63309 127.786 104.268) matrix(4.5413 0 0 3.18878 -696.252 -470.794)" x="181.466697" xml:space="preserve" y="188.511771">C</text>
   </g>
  </g>
 </g>
</svg>